<mxfile host="65bd71144e">
    <diagram name="Page-1" id="zsCLyDIgDe_OKyxtoVwp">
        <mxGraphModel dx="1136" dy="607" grid="1" gridSize="10" guides="1" tooltips="1" connect="1" arrows="1" fold="1" page="1" pageScale="1" pageWidth="850" pageHeight="1100" math="0" shadow="0">
            <root>
                <mxCell id="0"/>
                <mxCell id="1" parent="0"/>
                <mxCell id="icozlITI9t0HFUe6Zt-4-4" value="" style="edgeStyle=orthogonalEdgeStyle;rounded=0;orthogonalLoop=1;jettySize=auto;html=1;" parent="1" source="icozlITI9t0HFUe6Zt-4-1" target="icozlITI9t0HFUe6Zt-4-3" edge="1">
                    <mxGeometry relative="1" as="geometry"/>
                </mxCell>
                <mxCell id="icozlITI9t0HFUe6Zt-4-1" value="Start" style="rounded=1;whiteSpace=wrap;html=1;" parent="1" vertex="1">
                    <mxGeometry x="193.75" y="60" width="90" height="40" as="geometry"/>
                </mxCell>
                <mxCell id="icozlITI9t0HFUe6Zt-4-6" value="" style="edgeStyle=orthogonalEdgeStyle;rounded=0;orthogonalLoop=1;jettySize=auto;html=1;" parent="1" source="icozlITI9t0HFUe6Zt-4-3" target="icozlITI9t0HFUe6Zt-4-5" edge="1">
                    <mxGeometry relative="1" as="geometry"/>
                </mxCell>
                <mxCell id="icozlITI9t0HFUe6Zt-4-3" value="&lt;div&gt;Display &quot;Please input two numbers&quot;&lt;br&gt;&lt;/div&gt;" style="shape=parallelogram;perimeter=parallelogramPerimeter;whiteSpace=wrap;html=1;fixedSize=1;" parent="1" vertex="1">
                    <mxGeometry x="148.13" y="130" width="181.25" height="40" as="geometry"/>
                </mxCell>
                <mxCell id="icozlITI9t0HFUe6Zt-4-8" value="" style="edgeStyle=orthogonalEdgeStyle;rounded=0;orthogonalLoop=1;jettySize=auto;html=1;" parent="1" source="icozlITI9t0HFUe6Zt-4-5" target="icozlITI9t0HFUe6Zt-4-7" edge="1">
                    <mxGeometry relative="1" as="geometry"/>
                </mxCell>
                <mxCell id="icozlITI9t0HFUe6Zt-4-5" value="&lt;div&gt;Save Number1&lt;/div&gt;&lt;div&gt;&amp;amp; Number2&lt;br&gt;&lt;/div&gt;" style="shape=parallelogram;perimeter=parallelogramPerimeter;whiteSpace=wrap;html=1;fixedSize=1;" parent="1" vertex="1">
                    <mxGeometry x="170.63" y="200" width="136.25" height="50" as="geometry"/>
                </mxCell>
                <mxCell id="icozlITI9t0HFUe6Zt-4-10" value="" style="edgeStyle=orthogonalEdgeStyle;rounded=0;orthogonalLoop=1;jettySize=auto;html=1;" parent="1" source="icozlITI9t0HFUe6Zt-4-7" target="icozlITI9t0HFUe6Zt-4-9" edge="1">
                    <mxGeometry relative="1" as="geometry"/>
                </mxCell>
                <mxCell id="icozlITI9t0HFUe6Zt-4-7" value="&lt;div&gt;Calculate numb1+numb2&lt;/div&gt;&lt;div&gt;and save it as sum1&lt;br&gt;&lt;/div&gt;" style="whiteSpace=wrap;html=1;" parent="1" vertex="1">
                    <mxGeometry x="178.75" y="280" width="120" height="60" as="geometry"/>
                </mxCell>
                <mxCell id="icozlITI9t0HFUe6Zt-4-12" value="" style="edgeStyle=orthogonalEdgeStyle;rounded=0;orthogonalLoop=1;jettySize=auto;html=1;" parent="1" source="icozlITI9t0HFUe6Zt-4-9" target="icozlITI9t0HFUe6Zt-4-11" edge="1">
                    <mxGeometry relative="1" as="geometry"/>
                </mxCell>
                <mxCell id="icozlITI9t0HFUe6Zt-4-9" value="&lt;div&gt;Divide sum1 by 2&lt;/div&gt;&lt;div&gt;and save it as average1&lt;br&gt;&lt;/div&gt;" style="whiteSpace=wrap;html=1;" parent="1" vertex="1">
                    <mxGeometry x="178.75" y="370" width="120" height="60" as="geometry"/>
                </mxCell>
                <mxCell id="icozlITI9t0HFUe6Zt-4-14" value="" style="edgeStyle=orthogonalEdgeStyle;rounded=0;orthogonalLoop=1;jettySize=auto;html=1;" parent="1" source="icozlITI9t0HFUe6Zt-4-11" target="icozlITI9t0HFUe6Zt-4-13" edge="1">
                    <mxGeometry relative="1" as="geometry"/>
                </mxCell>
                <mxCell id="icozlITI9t0HFUe6Zt-4-11" value="&lt;div&gt;Display &quot;Sum of the&lt;/div&gt;&lt;div&gt;&amp;nbsp;two numbers is&quot; + sum1 +&lt;/div&gt;&lt;div&gt;&quot;and average is &quot; + average1&lt;br&gt;&lt;/div&gt;" style="shape=parallelogram;perimeter=parallelogramPerimeter;whiteSpace=wrap;html=1;fixedSize=1;" parent="1" vertex="1">
                    <mxGeometry x="141.87" y="470" width="193.75" height="70" as="geometry"/>
                </mxCell>
                <mxCell id="icozlITI9t0HFUe6Zt-4-13" value="End" style="rounded=1;whiteSpace=wrap;html=1;" parent="1" vertex="1">
                    <mxGeometry x="195.3" y="570" width="86.88" height="35" as="geometry"/>
                </mxCell>
            </root>
        </mxGraphModel>
    </diagram>
</mxfile>